<svg width="90" height="90" viewBox="0 0 90 90" fill="none" xmlns="http://www.w3.org/2000/svg">
<g clip-path="url(#clip0_1_38)">
<path d="M12.4102 0.351562C11.3555 0.755859 10.3184 1.74023 9.79102 2.8125C9.43945 3.51562 9.4043 3.91992 9.35156 6.69727L9.28125 9.80859L7.85742 9.87891C5.48438 10.002 3.86719 10.9863 2.84766 12.9199L2.37305 13.7988V49.9219V86.0449L2.79492 86.8359C3.35742 87.9082 4.30664 88.875 5.36133 89.4375L6.24023 89.9121L32.625 89.9648C58.2715 90 59.0273 90 59.4316 89.666C59.9941 89.209 59.9941 88.1543 59.4316 87.6973C59.0449 87.3809 58.166 87.3633 33.0996 87.3633C7.64648 87.3633 7.18945 87.3633 6.50391 87.0117C6.13477 86.8184 5.64258 86.4141 5.41406 86.0977L5.00977 85.5176L4.95703 56.6367L4.92188 27.7734H13.623H22.3418L22.7637 27.334C23.3262 26.7891 23.3262 26.1211 22.7637 25.5762L22.3418 25.1367H13.623H4.9043L4.95703 19.7227C5.00977 14.3438 5.00977 14.3262 5.43164 13.7285C5.99414 12.9551 7.04883 12.4805 8.2793 12.4805H9.28125L9.35156 14.0273C9.4043 15.2754 9.52734 15.7852 9.91406 16.5762C10.7227 18.2285 12.1816 19.1426 14.0801 19.1602C15.4336 19.1602 16.5586 18.7383 17.4199 17.877C18.4395 16.8574 18.8086 15.9258 18.9316 14.0625L19.0371 12.4805H21.8848H24.75L24.8203 14.0977C24.9258 16.4707 25.7168 17.8418 27.457 18.7031C29.25 19.5996 31.623 19.1777 32.9941 17.7363C33.9434 16.7344 34.2773 15.7676 34.2773 14.0098V12.4805H37.248H40.2188L40.2891 14.1855C40.3594 16.0488 40.5527 16.5762 41.5371 17.6836C43.2949 19.7051 46.793 19.6523 48.5684 17.5781C49.4121 16.5938 49.7461 15.5391 49.7461 13.8516V12.4805H52.7344H55.7227V14.0098C55.7227 15.7676 56.0566 16.7344 57.0059 17.7363C58.377 19.1777 60.75 19.5996 62.543 18.7031C64.2832 17.8418 65.0742 16.4707 65.1797 14.0977L65.25 12.4805H68.1152H70.9629L71.0684 14.0625C71.1914 15.8906 71.5605 16.8926 72.4922 17.7891C73.5469 18.8262 74.2324 19.0723 75.9375 19.0723C77.625 19.0723 78.1699 18.8613 79.207 17.8066C80.1562 16.875 80.543 15.8379 80.6484 14.0273L80.7363 12.4805H81.7207C82.9512 12.4805 84.0059 12.9551 84.5684 13.7285C84.9902 14.3262 84.9902 14.3438 85.043 19.7227L85.0957 25.1367H55.8984H26.7012L26.2793 25.5762C25.7168 26.1211 25.7168 26.7891 26.2793 27.334L26.7012 27.7734H55.8984H85.0781L85.043 56.6367L84.9902 85.5176L84.5859 86.0977C84.3574 86.4141 83.8652 86.8184 83.4961 87.0117C82.8281 87.3457 82.4238 87.3633 73.0723 87.3633H63.334L62.9648 87.7676C62.4199 88.3477 62.4551 89.1738 63.0527 89.6484C63.5098 90 63.5801 90.0176 73.5469 89.9648L83.584 89.9121L84.4629 89.5078C85.5703 88.998 86.5547 88.0488 87.1523 86.9238L87.627 86.0449V49.9219V13.7988L87.1523 12.9199C86.1328 10.9863 84.5156 10.002 82.1426 9.87891L80.7188 9.80859L80.6484 6.69727C80.5957 3.88477 80.5605 3.5332 80.1914 2.77734C79.4004 1.17773 77.5547 0 75.8496 0C74.0742 0 72.2637 1.19531 71.5254 2.84766C71.1562 3.67383 71.1035 4.0957 71.0508 6.80273L70.9805 9.84375H68.0977H65.2148V7.06641C65.2148 3.70898 65.0039 2.79492 63.9316 1.63477C63.0352 0.667969 62.1035 0.175781 60.9082 0.0527344C58.957 -0.158203 57.0586 0.896484 56.1797 2.67188C55.7402 3.55078 55.7227 3.69141 55.7227 6.71484V9.84375H52.7344H49.7461V6.78516V3.72656L49.166 2.60156C47.918 0.175781 45.1055 -0.667969 42.6797 0.650391C41.748 1.16016 40.8691 2.17969 40.4824 3.2168C40.3594 3.56836 40.2715 4.95703 40.2715 6.80273L40.2539 9.84375H37.2656H34.2773V6.71484C34.2773 3.69141 34.2598 3.55078 33.8203 2.67188C32.9414 0.896484 31.043 -0.158203 29.0742 0.0527344C27.9668 0.158203 27.1934 0.527344 26.3145 1.38867C24.9961 2.63672 24.873 3.02344 24.8203 6.62695L24.75 9.84375H21.8848H19.0195L18.9492 6.80273C18.8965 4.0957 18.8438 3.67383 18.4746 2.84766C17.4375 0.527344 14.7656 -0.5625 12.4102 0.351562ZM14.9941 2.88281C16.1719 3.35742 16.1719 3.41016 16.1719 9.68555V15.3281L15.5742 15.9258C15.0645 16.4355 14.8535 16.5234 14.1504 16.5234C13.4473 16.5234 13.2363 16.4355 12.7441 15.9434C11.9707 15.1699 11.918 14.748 11.9883 8.96484C12.041 3.58594 12.0938 3.39258 13.2363 2.90039C13.957 2.58398 14.291 2.58398 14.9941 2.88281ZM30.4805 2.90039C31.623 3.44531 31.6406 3.58594 31.6406 9.58008C31.6406 15.4863 31.6055 15.7324 30.5859 16.2598C29.4961 16.8223 28.1953 16.418 27.6855 15.3633C27.4746 14.9062 27.4219 13.8867 27.4219 9.58008C27.4219 3.83203 27.457 3.63867 28.5293 2.98828C29.2148 2.56641 29.7246 2.54883 30.4805 2.90039ZM46.4766 3.32227L47.0215 3.86719L47.0742 9.4043C47.127 15.5039 47.0918 15.7148 46.0547 16.2598C45 16.8047 43.6465 16.4355 43.1543 15.4688C42.9082 15.0117 42.8906 14.1328 42.9258 9.42188L42.9785 3.90234L43.418 3.42773C43.998 2.79492 44.4199 2.61914 45.2461 2.70703C45.7207 2.75977 46.1074 2.95312 46.4766 3.32227ZM61.3652 2.90039C61.6465 3.05859 62.0508 3.42773 62.2266 3.74414C62.5605 4.27148 62.5781 4.6582 62.5781 9.54492C62.5781 13.8867 62.5254 14.9062 62.3145 15.3633C61.6289 16.8047 59.5195 16.9453 58.7109 15.6094C58.377 15.0645 58.3594 14.7129 58.3594 9.61523C58.3594 3.60352 58.377 3.46289 59.4844 2.91797C60.1875 2.56641 60.7148 2.56641 61.3652 2.90039ZM77.168 3.12891C77.4141 3.30469 77.6953 3.72656 77.8184 4.06055C78.082 4.81641 78.1172 14.0449 77.8711 14.9766C77.6074 15.9258 76.7988 16.5234 75.8145 16.5234C75.1465 16.5234 74.9355 16.4355 74.4258 15.9258L73.8281 15.3281V9.68555C73.8281 4.6582 73.8633 3.97266 74.127 3.56836C74.7422 2.63672 76.2012 2.42578 77.168 3.12891Z" fill="white"/>
<path d="M13.7988 34.541L13.3594 34.9629V40.166V45.3691L13.7988 45.791L14.2207 46.2305H19.4238C22.4824 46.2305 24.7676 46.1602 24.9609 46.0547C25.5586 45.7383 25.6641 44.9121 25.6641 40.166C25.6641 35.4199 25.5586 34.5938 24.9609 34.2773C24.7676 34.1719 22.4824 34.1016 19.4238 34.1016H14.2207L13.7988 34.541ZM22.8516 40.166V43.5938H19.4238H15.9961V40.166V36.7383H19.4238H22.8516V40.166Z" fill="white"/>
<path d="M30.7969 34.5059C30.4102 34.9102 30.4102 35.0156 30.4102 40.1836V45.4746L30.8145 45.8438C31.2188 46.2305 31.3242 46.2305 36.4922 46.2305H41.7832L42.1523 45.8262C42.5391 45.4219 42.5391 45.3164 42.5391 40.1133C42.5391 34.8926 42.5391 34.8047 42.1523 34.4531C41.7832 34.1191 41.5547 34.1016 36.4746 34.1016H31.166L30.7969 34.5059ZM39.9023 40.166V43.5938H36.4746H33.0469V40.166V36.7383H36.4746H39.9023V40.166Z" fill="white"/>
<path d="M47.8125 34.4531C47.4785 34.7871 47.4609 35.0332 47.4609 40.1309V45.4746L47.8652 45.8438C48.2695 46.2305 48.375 46.2305 53.5605 46.2305H58.8691L59.2207 45.7734C59.5723 45.3164 59.5898 45.1055 59.5898 40.0781V34.8574L59.1855 34.4883C58.7812 34.1016 58.6758 34.1016 53.4727 34.1016C48.3926 34.1016 48.1465 34.1191 47.8125 34.4531ZM56.9531 40.166V43.5938H53.5254H50.0977V40.166V36.7383H53.5254H56.9531V40.166Z" fill="white"/>
<path d="M64.9863 34.3125C64.4238 34.752 64.3359 35.4902 64.3359 40.1484C64.3359 44.9121 64.4414 45.7383 65.0391 46.0547C65.2324 46.1602 67.5176 46.2305 70.5762 46.2305H75.7793L76.2012 45.791L76.6406 45.3691V40.166V34.9629L76.2012 34.541L75.7793 34.1016H70.5234C66.6035 34.1016 65.2148 34.1543 64.9863 34.3125ZM74.0039 40.166V43.5938H70.5762H67.1484V40.166V36.7383H70.5762H74.0039V40.166Z" fill="white"/>
<path d="M13.7988 51.7676L13.3594 52.1895V57.3574C13.3594 62.332 13.377 62.543 13.7285 63L14.0801 63.457H19.4941C24.7676 63.457 24.9082 63.4395 25.2422 63.0879C25.5586 62.7363 25.5762 62.3848 25.5762 57.4453V52.1719L25.084 51.75L24.5918 51.3281H19.4062H14.2207L13.7988 51.7676ZM22.8516 57.3926V60.8203H19.4238H15.9961V57.3926V53.9648H19.4238H22.8516V57.3926Z" fill="white"/>
<path d="M30.8496 51.7676L30.4102 52.1895V57.4453C30.4102 62.4727 30.4277 62.7012 30.7617 63.0703C31.1309 63.457 31.2012 63.457 36.4746 63.457C41.6074 63.457 41.8535 63.4395 42.1875 63.1055C42.5215 62.7715 42.5391 62.5254 42.5391 57.4102V52.0488L42.082 51.6973C41.625 51.3457 41.4141 51.3281 36.4395 51.3281H31.2715L30.8496 51.7676ZM39.9023 57.3926V60.8203H36.4746H33.0469V57.3926V53.9648H36.4746H39.9023V57.3926Z" fill="white"/>
<path d="M47.918 51.6973L47.4609 52.0488V57.4102C47.4609 62.5254 47.4785 62.7715 47.8125 63.1055C48.1465 63.4395 48.3926 63.457 53.5254 63.457C58.7988 63.457 58.8691 63.457 59.2383 63.0703C59.5723 62.7012 59.5898 62.4727 59.5898 57.4453V52.1895L59.1504 51.7676L58.7285 51.3281H53.5605C48.5859 51.3281 48.375 51.3457 47.918 51.6973ZM56.9531 57.3926V60.8203H53.5254H50.0977V57.3926V53.9648H53.5254H56.9531V57.3926Z" fill="white"/>
<path d="M65.0743 51.5391C64.4063 51.8731 64.3184 52.752 64.3712 57.9199C64.4239 62.3496 64.4415 62.7539 64.7579 63.0879C65.0919 63.4395 65.2325 63.457 70.5059 63.457H75.92L76.2715 63C76.6231 62.543 76.6407 62.332 76.6407 57.3574V52.1895L76.2012 51.7676L75.7794 51.3281L70.629 51.3457C67.3067 51.3457 65.338 51.416 65.0743 51.5391ZM74.004 57.3926V60.8203H70.5762H67.1485V57.3926V53.9648H70.5762H74.004V57.3926Z" fill="white"/>
<path d="M14.1328 68.7656C13.9219 68.8535 13.6582 69.1348 13.5527 69.3633C13.2891 69.9609 13.2891 79.4531 13.5527 80.0332C13.9043 80.8066 14.3086 80.8594 19.5996 80.8594H24.5918L25.084 80.4375L25.5762 80.0156V74.707V69.3984L25.084 68.9766L24.5918 68.5547L19.5469 68.5723C16.4531 68.5723 14.3613 68.6426 14.1328 68.7656ZM22.8516 74.707V78.2227L19.4766 78.1875L16.084 78.1348L16.0312 74.8828C16.0137 73.1074 16.0312 71.543 16.0664 71.4199C16.1367 71.2441 16.9453 71.1914 19.5117 71.1914H22.8516V74.707Z" fill="white"/>
<path d="M31.166 68.7305C30.9551 68.8184 30.709 69.0469 30.6035 69.2402C30.4805 69.4688 30.4102 71.4375 30.4102 74.7598C30.4102 79.5938 30.4277 79.9629 30.7441 80.3496L31.0781 80.7715H36.4746H41.8711L42.2051 80.3496C42.5215 79.9629 42.5391 79.5938 42.5391 74.707C42.5391 69.8203 42.5215 69.4512 42.2051 69.0645L41.8711 68.6426L36.7031 68.6074C33.873 68.5898 31.377 68.6426 31.166 68.7305ZM39.9023 74.707V78.2227H36.4746H33.0469V74.707V71.1914H36.4746H39.9023V74.707Z" fill="white"/>
<path d="M48.2168 68.7305C48.0059 68.8184 47.7598 69.0469 47.6543 69.2402C47.5312 69.4688 47.4609 71.4375 47.4609 74.7598C47.4609 79.5938 47.4785 79.9629 47.7949 80.3496L48.1289 80.7715H53.5254H58.9219L59.2559 80.3496C59.5723 79.9629 59.5898 79.5938 59.5898 74.707C59.5898 69.8203 59.5723 69.4512 59.2559 69.0645L58.9219 68.6426L53.7539 68.6074C50.9238 68.5898 48.4277 68.6426 48.2168 68.7305ZM56.9531 74.707V78.2227H53.5254H50.0977V74.707V71.1914H53.5254H56.9531V74.707Z" fill="white"/>
<path d="M64.916 68.9766L64.4238 69.3984V74.707V80.0156L64.916 80.4375L65.4082 80.8594H70.4004C75.6914 80.8594 76.0957 80.8066 76.4473 80.0332C76.7109 79.4531 76.7109 69.9609 76.4473 69.3809C76.0957 68.6074 75.6914 68.5547 70.4004 68.5547H65.4082L64.916 68.9766ZM73.916 74.707V78.1348L70.541 78.1875L67.1484 78.2227V74.707V71.1914L70.541 71.2266L73.916 71.2793V74.707Z" fill="white"/>
</g>
<defs>
<clipPath id="clip0_1_38">
<rect width="90" height="90" fill="white"/>
</clipPath>
</defs>
</svg>
