<svg width="90" height="90" viewBox="0 0 90 90" fill="none" xmlns="http://www.w3.org/2000/svg">
<path d="M37.2816 0.327332C35.742 0.914726 34.9722 1.82252 33.3226 4.99089C32.113 7.28708 31.7831 7.80327 31.3982 7.89227C30.4634 8.08807 29.5836 8.55087 28.9422 9.19166C28.154 9.97485 22.3256 20.7794 22.0507 21.9542C21.7758 23.1468 22.179 24.6419 23.0038 25.5141C23.352 25.9057 23.352 25.9057 22.8938 26.7957L22.4356 27.6857L21.5741 27.4365C19.0082 26.6889 16.3139 27.7747 15.0492 30.0709C14.701 30.7117 14.6277 31.1033 14.6277 32.4383C14.6277 35.4109 15.2325 36.016 21.2259 39.0598C28.7222 42.869 29.1438 43.047 30.4451 43.047C32.1313 43.0648 33.3226 42.602 34.4407 41.534C35.6503 40.3414 36.0536 39.2378 35.9436 37.4222C35.8336 35.8737 35.3204 34.8947 34.0558 33.8089L33.2127 33.0969L33.6159 32.2959C34.0191 31.5127 34.0191 31.5127 35.1371 31.4237C36.8417 31.2813 38.0514 30.5515 39.0044 29.0919L39.316 28.6113L42.6151 30.2489C45.9142 31.9043 45.9142 31.9043 46.3358 32.7943C46.5557 33.2749 47.0689 33.9869 47.4538 34.3429C47.9304 34.7879 50.9912 36.4254 56.5997 39.2556C61.2368 41.5874 65.3057 43.5988 65.6539 43.7056C66.5337 44.0082 67.6517 43.9726 68.6964 43.6166C70.126 43.1538 71.0608 42.068 72.6187 39.042C74.1766 36.0338 74.3965 35.0727 73.8284 33.4351C73.3152 31.9221 72.4721 31.2813 67.9633 29.0207C63.7844 26.9381 63.0696 26.7067 62.5014 27.3297C62.0982 27.7747 62.0982 28.8427 62.5198 29.1809C62.6847 29.3411 64.5542 30.3201 66.6436 31.3703C68.9897 32.5629 70.6209 33.4885 70.8958 33.8089C71.6473 34.6633 71.519 35.3041 70.0344 38.0986C68.6231 40.7152 68.1282 41.2492 67.0652 41.2492C66.3504 41.2492 50.0015 33.0257 49.3233 32.3315C48.4802 31.4593 48.6085 30.7117 50.0198 28.0951C52.0359 24.3037 52.4208 24.1791 56.1415 26.0659L58.4875 27.2763L59.1473 26.9737C59.5689 26.7601 59.8438 26.4931 59.9171 26.1727C60.1554 25.2649 59.6972 24.8733 56.8746 23.4671L54.217 22.1678L52.5674 22.2568L50.9179 22.3458L47.7104 20.7438C45.9509 19.8538 44.4846 19.1062 44.448 19.0884C44.4113 19.0528 44.5213 18.7858 44.6862 18.4654C45.1078 17.6644 45.2361 16.2938 44.9612 15.3504C44.6679 14.318 43.5132 13.0542 42.3769 12.4846L41.4788 12.0574L42.9634 9.22726C44.393 6.48608 44.448 6.36148 44.448 5.15109C44.448 3.7093 44.0631 2.71251 43.1283 1.66232C41.7537 0.149334 39.261 -0.420261 37.2816 0.327332ZM40.3241 2.92611C41.1672 3.29991 41.6621 4.1187 41.6621 5.0799C41.6621 5.72069 41.3321 6.48608 39.9025 9.19166C37.7764 13.2144 37.7581 13.1254 40.1041 14.3358C41.7537 15.1724 42.3952 15.7776 42.3952 16.454C42.3952 17.077 36.6401 27.8637 36.0352 28.4155C35.6503 28.7359 35.4121 28.8071 34.8989 28.7359C34.1291 28.6291 25.8263 24.4817 25.2032 23.8943C24.3601 23.129 24.5067 22.7018 27.6225 16.8634C29.2171 13.873 30.72 11.2386 30.9399 11.0072C31.2515 10.7047 31.5998 10.5623 32.1679 10.5444C32.6078 10.5266 33.1027 10.4377 33.2677 10.3665C33.4509 10.2953 34.349 8.83566 35.2654 7.09128C37.08 3.7093 37.2632 3.46011 38.088 2.96171C38.7662 2.55231 39.481 2.53452 40.3241 2.92611ZM45.6943 22.7552C47.0873 23.4493 48.3702 24.1079 48.5535 24.2325C48.8285 24.4461 48.7551 24.6597 47.6188 26.7957L46.3724 29.1453L43.4582 27.6857C41.8637 26.8847 40.5807 26.1727 40.599 26.1193C40.8006 25.6387 43.055 21.4914 43.11 21.4914C43.1467 21.4914 44.3013 22.061 45.6943 22.7552ZM31.1599 31.0499C30.9399 31.4771 30.7017 31.8153 30.61 31.8153C30.4634 31.8153 25.2215 29.2165 25.0016 29.0207C24.9466 28.9851 25.0932 28.5935 25.3131 28.1485L25.7164 27.3475L28.6306 28.8071L31.5448 30.2845L31.1599 31.0499ZM26.3395 32.7231C29.4737 34.3073 32.1863 35.7313 32.3879 35.8915C32.9194 36.3364 33.231 37.084 33.231 37.8672C33.231 39.3624 32.2046 40.3592 30.6284 40.3592C29.8952 40.3592 29.2904 40.1278 26.7794 38.8462C25.1299 38.0096 22.6922 36.7814 21.3542 36.1228C19.9979 35.4643 18.55 34.6455 18.1467 34.2895C17.3953 33.6487 17.3769 33.6131 17.3769 32.4739C17.3769 31.2101 17.5969 30.8185 18.6599 30.1955C19.7963 29.5013 20.2178 29.6437 26.3395 32.7231Z" fill="white"/>
<path d="M9.46953 21.0607C7.49214 21.9333 6.61188 23.7284 7.4156 25.2617C7.87486 26.1593 9.95431 28.5153 10.5794 28.8519C11.2683 29.2383 12.442 29.2757 13.1181 28.9392C13.9218 28.5403 14.6363 27.7424 14.8531 27.0319C15.1721 25.9598 15.019 25.4736 13.756 23.4666C12.8247 21.9831 12.544 21.6341 12.0338 21.3225C11.3193 20.8861 10.1329 20.7615 9.46953 21.0607ZM11.1663 23.0303C11.5745 23.4666 13.1181 26.0097 13.1181 26.2465C13.1181 26.5582 12.6716 27.0568 12.2379 27.2313C11.6893 27.4557 11.3959 27.2563 10.1329 25.7479C9.16335 24.601 9.03578 24.3891 9.06129 24.0026C9.08681 23.6661 9.21438 23.4915 9.64813 23.1674C10.2988 22.6812 10.7963 22.6438 11.1663 23.0303Z" fill="white"/>
<path d="M3.24791 27.5446C2.56225 27.7543 1.66959 28.6794 1.33322 29.5181C0.815741 30.8132 1.03567 31.9356 1.98008 32.7866C2.614 33.3663 5.8612 34.5381 6.83148 34.5381C8.08638 34.5381 8.97904 33.983 9.53533 32.873C9.88463 32.1699 9.94932 31.1832 9.67764 30.5542C9.34128 29.8018 8.81086 29.3824 6.98673 28.4327C5.43428 27.6187 5.0591 27.4706 4.43812 27.4336C4.02414 27.409 3.49372 27.4583 3.24791 27.5446ZM5.93883 29.9868C6.75386 30.4062 7.53009 30.8502 7.65946 30.9735C7.96995 31.2695 7.96995 31.7876 7.64652 32.2809C7.43953 32.614 7.31016 32.688 6.94792 32.688C6.43043 32.688 3.59721 31.6889 3.23497 31.3805C2.91155 31.1092 2.92448 30.5788 3.24791 29.9745C3.75246 29.0247 4.03707 29.0247 5.93883 29.9868Z" fill="white"/>
<path d="M2.78838 36.1023C1.76614 36.2007 1.27443 36.4343 0.679206 37.0982C0.0839781 37.7622 -0.110118 38.4876 0.0580987 39.5696C0.213376 40.6147 0.614508 41.3033 1.35207 41.7582C2.10258 42.2377 2.63311 42.3238 3.91414 42.1394C6.45033 41.7951 7.1879 41.623 7.74431 41.2172C8.72773 40.5041 9.10298 39.5082 8.87006 38.3032C8.68891 37.4302 8.15838 36.7417 7.3173 36.3113C6.68325 36.0039 6.54091 35.9794 5.13048 35.9917C4.30233 36.0039 3.25422 36.0531 2.78838 36.1023ZM6.63149 38.0942C7.14908 38.6475 7.11026 39.4959 6.54091 39.791C6.39857 39.8647 5.46691 40.0369 4.47055 40.1844L2.65899 40.4549L2.34843 40.1598C2.1414 39.9508 2.012 39.6434 1.9473 39.2377C1.8826 38.709 1.90848 38.5614 2.1414 38.2909C2.43901 37.922 2.67193 37.8852 5.00108 37.8483C6.26918 37.8237 6.38563 37.8483 6.63149 38.0942Z" fill="white"/>
<path d="M40.9733 79.5504C41.4355 79.5068 41.9008 79.2083 42.0065 78.8834C42.0433 78.7489 43.0053 78.4635 44.4213 78.1643C49.7792 77.0507 55.0534 75.0852 56.3495 73.7015C56.5989 73.4607 56.89 73.0066 57.0228 72.7045C57.2679 72.1749 57.3425 72.1458 58.3104 72.0216C64.3762 71.2456 69.4984 71.1751 74.7378 71.7731C81.0552 72.5142 84.5939 71.7102 87.013 69.0271C87.4649 68.5336 87.9842 67.9771 88.1663 67.7992C88.8194 67.1805 88.8945 64.5313 88.2594 63.9883C87.644 63.4342 72.3197 57.8889 65.2146 55.6398C58.5341 53.5452 54.036 52.7981 43.5676 52.0521C40.0338 51.8029 39.267 51.8019 38.8927 52.0114C38.3216 52.3311 38.1415 52.9888 38.4949 53.525C38.8254 54.0234 39.1957 54.1325 40.791 54.2139C45.319 54.4254 52.271 55.1024 55.8675 55.6708C60.4829 56.4156 69.5639 59.3051 82.2021 64.0634C84.3012 64.8626 86.089 65.5197 86.1827 65.5432C86.2607 65.5628 86.3182 65.6572 86.2977 65.7319C86.2732 65.8216 86.994 65.7471 86.1827 65.5432C86.3107 67.8922 82.7598 69.8361 81.7453 69.8361C80.7308 69.8361 58.3104 66.9203 55.0593 71.0447C54.7561 71.8472 54.5446 72.1934 54.2926 72.3218C54.0801 72.4281 53.9036 72.4637 53.8962 72.4298C53.8732 72.3921 53.8029 71.7354 53.7456 70.9701C53.6684 69.9122 53.5597 69.5175 53.2771 69.2707C52.8285 68.8384 52.1003 68.879 51.6212 69.3497C51.3005 69.6685 51.2907 69.8259 51.4029 71.5475C51.4612 72.5527 51.4972 73.4565 51.4726 73.5461C51.403 73.8002 49.0063 74.6357 48.9069 74.4509C48.8493 74.3566 48.765 73.5685 48.7052 72.6908C48.6569 71.8319 48.538 70.9872 48.4303 70.8323C47.9239 70.0021 46.69 70.1233 46.3541 71.0454C46.2567 71.3404 46.2369 72.326 46.3018 73.4287C46.4378 75.1244 46.4158 75.3266 46.1449 75.4023C45.984 75.4417 45.2461 75.6397 44.5007 75.8038L43.1587 76.1375L43.9088 73.642C44.7358 70.9262 44.7561 70.5479 44.187 69.3983C43.553 68.1206 41.9711 67.2597 40.5451 67.4125C38.1439 67.6557 36.6365 69.6893 37.1768 71.918C37.3036 72.4292 37.4189 72.9215 37.4338 72.9891C37.4289 73.0678 37.0954 72.8242 36.6616 72.4595C34.5083 70.6402 30.8087 68.2564 28.2026 66.9943C26.4056 66.1272 23.0897 65.3257 21.1456 65.3004C17.7696 65.2666 14.3966 65.9526 10.8501 67.3937L9.6822 67.883L9.32774 67.1069C8.7628 65.9424 8.10277 63.9073 7.89822 62.7056C7.53131 60.6962 7.62035 60.1275 9.17173 54.4623L10.5962 49.2606L19.4115 51.4763L28.2267 53.692L30.8351 53.7885C32.2588 53.8268 33.565 53.8675 33.7333 53.8619C34.1873 53.8482 34.8069 53.4128 34.9092 53.0391C35.0525 52.5159 34.6348 51.7879 34.1044 51.6546C33.6987 51.5526 31.1223 51.4003 30.2963 51.4323C30.0262 51.4443 30.0516 51.2909 30.5387 49.5122C31.034 47.7035 31.0552 47.5651 30.7938 47.1798L30.525 46.7608L20.68 44.2863L10.8195 41.8078L10.3813 42.1291C9.94313 42.4503 9.93494 42.4802 7.57485 51.2811C5.21067 60.0969 5.20247 60.1268 5.29039 61.2673C5.45905 63.8179 6.85405 68.1627 8.04255 69.8513C8.64255 70.7051 9.0761 70.7662 10.3786 70.1509C15.1124 67.9058 20.5058 67.0887 24.2815 68.0377C27.5111 68.8495 31.4029 71.2016 36.6714 75.5294C38.961 77.399 39.2856 77.7362 39.5242 78.3873C39.8351 79.2004 40.3544 79.6185 40.9733 79.5504ZM40.1138 73.3112C39.3873 71.2754 39.3343 70.7987 39.7953 70.2116C40.2202 69.6954 40.7734 69.5628 41.4075 69.866C42.2247 70.2311 42.2817 70.6928 41.7585 72.5424C41.3376 74.0183 40.9255 75.0969 40.7851 75.0616C40.7695 75.0577 40.4544 74.2596 40.1138 73.3112ZM73.6291 70.8081C76.2729 67.9738 68.649 69.7819 76.6726 70.8081C87.8204 70.0944 85.1885 68.7093 85.2962 68.8642C85.4187 69.0867 84.3127 69.428 83.2671 69.8361C81.2743 70.5974 79.0835 69.9098 73.1636 69.3005C69.5451 68.9342 64.5912 68.9991 60.1803 69.4561C59.3183 69.559 58.6172 69.6224 58.5819 69.6295C58.5663 69.6256 73.3157 71.1607 73.6291 70.8081ZM11.5582 45.7479L11.9061 44.4774L20.0973 46.5362L28.2884 48.5951L27.9405 49.8656L27.5925 51.1362L19.4014 49.0773L11.2102 47.0185L11.5582 45.7479Z" fill="white"/>
</svg>
