<svg width="131" height="37" viewBox="0 0 131 37" fill="none" xmlns="http://www.w3.org/2000/svg">
<path d="M11.1 24.45L11.9 30.25H11.95L12.8 24.35L20 0.999998H22L29.25 24.45L30.1 30.25H30.15L31.05 24.35L36.95 0.999998H41L31.25 36.55H28.95L21.85 13.1L20.95 7.8H20.7L19.8 13.15L12.7 36.55H10.4L0.4 0.999998H4.8L11.1 24.45ZM46.1063 11H50.1063V36H46.1063V11ZM45.2563 3.4C45.2563 2.63333 45.5063 1.98333 46.0063 1.45C46.5396 0.883332 47.2063 0.6 48.0062 0.6C48.8063 0.6 49.4896 0.883332 50.0563 1.45C50.6229 1.98333 50.9063 2.63333 50.9063 3.4C50.9063 4.16667 50.6229 4.8 50.0563 5.3C49.4896 5.8 48.8063 6.05 48.0062 6.05C47.2063 6.05 46.5396 5.8 46.0063 5.3C45.5063 4.8 45.2563 4.16667 45.2563 3.4ZM58.2352 12.85C59.5018 12.0833 60.9685 11.5167 62.6352 11.15C64.3352 10.7833 66.1018 10.6 67.9352 10.6C69.6685 10.6 71.0518 10.8333 72.0852 11.3C73.1518 11.7667 73.9518 12.3833 74.4852 13.15C75.0518 13.8833 75.4185 14.7 75.5852 15.6C75.7852 16.5 75.8852 17.4 75.8852 18.3C75.8852 20.3 75.8352 22.25 75.7352 24.15C75.6352 26.05 75.5852 27.85 75.5852 29.55C75.5852 30.7833 75.6352 31.95 75.7352 33.05C75.8352 34.15 76.0185 35.1667 76.2852 36.1H73.3352L72.2852 32.6H72.0352C71.7352 33.0667 71.3518 33.5333 70.8852 34C70.4518 34.4333 69.9185 34.8333 69.2852 35.2C68.6518 35.5333 67.9185 35.8167 67.0852 36.05C66.2518 36.2833 65.3018 36.4 64.2352 36.4C63.1685 36.4 62.1685 36.2333 61.2352 35.9C60.3352 35.5667 59.5518 35.1 58.8852 34.5C58.2185 33.8667 57.6852 33.1167 57.2852 32.25C56.9185 31.3833 56.7352 30.4 56.7352 29.3C56.7352 27.8333 57.0352 26.6167 57.6352 25.65C58.2352 24.65 59.0685 23.8667 60.1352 23.3C61.2352 22.7 62.5352 22.2833 64.0352 22.05C65.5685 21.7833 67.2518 21.65 69.0852 21.65C69.5518 21.65 70.0018 21.65 70.4352 21.65C70.9018 21.65 71.3685 21.6833 71.8352 21.75C71.9352 20.75 71.9852 19.85 71.9852 19.05C71.9852 17.2167 71.6185 15.9333 70.8852 15.2C70.1518 14.4667 68.8185 14.1 66.8852 14.1C66.3185 14.1 65.7018 14.15 65.0352 14.25C64.4018 14.3167 63.7352 14.4333 63.0352 14.6C62.3685 14.7333 61.7185 14.9167 61.0852 15.15C60.4852 15.35 59.9518 15.5833 59.4852 15.85L58.2352 12.85ZM65.3352 32.9C66.2685 32.9 67.1018 32.7833 67.8352 32.55C68.5685 32.2833 69.2018 31.9667 69.7352 31.6C70.2685 31.2 70.7018 30.7667 71.0352 30.3C71.4018 29.8333 71.6685 29.3833 71.8352 28.95V24.8C71.3685 24.7667 70.8852 24.75 70.3852 24.75C69.9185 24.7167 69.4518 24.7 68.9852 24.7C67.9518 24.7 66.9352 24.7667 65.9352 24.9C64.9685 25 64.1018 25.2167 63.3352 25.55C62.6018 25.85 62.0018 26.2833 61.5352 26.85C61.1018 27.3833 60.8852 28.0667 60.8852 28.9C60.8852 30.0667 61.3018 31.0333 62.1352 31.8C62.9685 32.5333 64.0352 32.9 65.3352 32.9ZM102.64 27.4C102.64 29.1 102.657 30.65 102.69 32.05C102.723 33.4167 102.873 34.7667 103.14 36.1H100.44L99.4398 32.55H99.2398C98.5732 33.7167 97.6065 34.6833 96.3398 35.45C95.0732 36.2167 93.5898 36.6 91.8898 36.6C88.5565 36.6 86.0732 35.55 84.4398 33.45C82.8398 31.35 82.0398 28.0667 82.0398 23.6C82.0398 19.3333 83.0398 16.1 85.0398 13.9C87.0732 11.6667 89.8565 10.55 93.3898 10.55C94.6232 10.55 95.5898 10.6167 96.2898 10.75C97.0232 10.8833 97.8065 11.1 98.6398 11.4V0.999998H102.64V27.4ZM92.5398 33.1C94.2398 33.1 95.5898 32.6667 96.5898 31.8C97.5898 30.9 98.2732 29.55 98.6398 27.75V15.35C98.0398 14.8833 97.3565 14.55 96.5898 14.35C95.8232 14.15 94.8065 14.05 93.5398 14.05C91.2398 14.05 89.4398 14.8167 88.1398 16.35C86.8398 17.85 86.1898 20.2667 86.1898 23.6C86.1898 24.9667 86.2898 26.2333 86.4898 27.4C86.7232 28.5667 87.0898 29.5667 87.5898 30.4C88.0898 31.2333 88.7398 31.9 89.5398 32.4C90.3732 32.8667 91.3732 33.1 92.5398 33.1ZM108.944 23.5C108.944 19.2667 109.877 16.0333 111.744 13.8C113.644 11.5333 116.361 10.4 119.894 10.4C121.761 10.4 123.377 10.7167 124.744 11.35C126.144 11.95 127.294 12.8333 128.194 14C129.094 15.1333 129.761 16.5167 130.194 18.15C130.627 19.75 130.844 21.5333 130.844 23.5C130.844 27.7333 129.894 30.9833 127.994 33.25C126.127 35.4833 123.427 36.6 119.894 36.6C118.027 36.6 116.394 36.3 114.994 35.7C113.627 35.0667 112.494 34.1833 111.594 33.05C110.694 31.8833 110.027 30.5 109.594 28.9C109.161 27.2667 108.944 25.4667 108.944 23.5ZM113.094 23.5C113.094 24.7667 113.211 25.9833 113.444 27.15C113.711 28.3167 114.111 29.3333 114.644 30.2C115.177 31.0667 115.877 31.7667 116.744 32.3C117.611 32.8333 118.661 33.1 119.894 33.1C124.427 33.1333 126.694 29.9333 126.694 23.5C126.694 22.2 126.561 20.9667 126.294 19.8C126.061 18.6333 125.677 17.6167 125.144 16.75C124.611 15.8833 123.911 15.2 123.044 14.7C122.177 14.1667 121.127 13.9 119.894 13.9C115.361 13.8667 113.094 17.0667 113.094 23.5Z" fill="white"/>
</svg>
