<svg width="90" height="90" viewBox="0 0 90 90" fill="none" xmlns="http://www.w3.org/2000/svg">
<g clip-path="url(#clip0_1_72)">
<path d="M22.5879 11.0039C5.57228 19.5117 0.544939 22.0957 0.298845 22.4648C0.0175953 22.9043 1.72308e-05 24.2227 0.0351735 44.6836L0.0879078 66.4453L0.527361 66.8672C1.23049 67.5352 44.4375 90 45.0176 90C45.2988 90 46.1777 89.6484 46.9863 89.2266C47.7774 88.8047 57.5684 83.6895 68.7305 77.8711C79.8926 72.0527 89.2266 67.0957 89.4727 66.8672L89.9121 66.4453L89.9648 44.7363C90 25.418 89.9824 22.957 89.7363 22.5C89.4902 22.0254 86.6426 20.5664 67.4824 10.9863C53.8242 4.14844 45.334 0 45.0352 0.0175781C44.7715 0.0175781 34.8574 4.86914 22.5879 11.0039ZM64.5469 13.7285L83.9356 23.4141L75.709 27.5273L67.5 31.6406L48.041 21.9023L28.5645 12.1816L36.6504 8.12109C41.0977 5.88867 44.8418 4.06055 44.9649 4.06055C45.0703 4.04297 53.8945 8.40234 64.5469 13.7285ZM63.1055 33.75C63.1055 33.8027 59.0274 35.877 54.0527 38.373L45 42.8906L25.541 33.1523L6.06447 23.4316L15.2051 18.8438L24.3457 14.2734L43.7168 23.9766C54.3867 29.3027 63.1055 33.6973 63.1055 33.75ZM23.4668 36.334L43.0664 46.1426V65.5137C43.0664 76.1836 43.0137 84.9023 42.9609 84.9023C42.9082 84.9023 34.0488 80.2969 23.2735 74.6719L3.69142 64.459V45.4922C3.69142 35.0684 3.72658 26.543 3.77931 26.543C3.83205 26.543 12.6914 30.9551 23.4668 36.334ZM86.3086 45.5098V64.459L66.7266 74.6895C55.9688 80.2969 47.1094 84.9023 47.0391 84.9023C46.9863 84.9023 46.9336 76.1836 46.9336 65.5137V46.1426L56.1621 41.5195C61.2422 38.9883 65.4258 36.9141 65.4785 36.9141C65.5313 36.9141 65.5664 40.8691 65.5664 45.7031C65.5664 55.3535 65.5664 55.4414 66.6035 55.9688C67.2715 56.3203 67.7285 56.3203 68.3965 55.9688C69.4336 55.4414 69.4336 55.459 69.4336 44.7012V34.8926L77.7481 30.7266C82.3008 28.4414 86.0977 26.5605 86.1856 26.5605C86.2559 26.543 86.3086 35.0684 86.3086 45.5098Z" fill="white"/>
</g>
<defs>
<clipPath id="clip0_1_72">
<rect width="90" height="90" fill="white"/>
</clipPath>
</defs>
</svg>
