<svg width="90" height="90" viewBox="0 0 90 90" fill="none" xmlns="http://www.w3.org/2000/svg">
<path d="M35.5781 0.281248C34.5938 0.632811 33.7676 1.47656 32.959 2.93554C32.1504 4.37695 29.8828 6.67969 28.4414 7.52344C26.1211 8.89453 23.168 9.50976 20.6719 9.1582C18.9141 8.91211 17.7715 8.54297 15.9961 7.6289C14.8711 7.04883 14.5195 6.96094 13.5352 6.96094C12.252 6.96094 11.3203 7.34765 10.5117 8.20898C9.93165 8.82422 4.27149 17.5957 3.93751 18.3867C3.55079 19.3008 3.63868 20.6895 4.11329 21.7266C4.41212 22.377 4.86915 22.9043 5.83594 23.6777C8.96485 26.2441 11.6543 29.6367 13.4649 33.3105C15.3809 37.2305 16.2774 40.7109 16.4707 45.0176C16.8574 53.9473 13.0957 62.7187 6.46876 68.3086C4.51759 69.9609 4.09571 70.418 3.7793 71.3496C3.42774 72.4043 3.44532 73.4062 3.86719 74.3027C4.30665 75.2871 10.6348 85.2012 11.2324 85.834C12.0059 86.6953 12.9551 87.082 14.2383 87.0996C15.2578 87.0996 15.5918 86.9941 17.3145 86.1855C18.3867 85.6934 19.6699 85.1484 20.1797 84.9727C21.4277 84.5859 21.9727 84.1289 21.9727 83.4785C21.9727 82.8809 21.2871 82.0898 20.7774 82.0898C20.25 82.0898 18.0352 82.8984 16.2246 83.7598C14.3789 84.6211 13.9395 84.709 13.377 84.252C13.1836 84.0762 11.4609 81.5273 9.58008 78.5742C7.10157 74.6895 6.15235 73.0723 6.15235 72.6855C6.15235 72.2637 6.38087 71.9648 7.34766 71.1211C13.8516 65.3379 17.2969 59.4492 18.7383 51.5918C19.1953 49.1484 19.1953 43.3652 18.7383 40.8691C17.8066 35.7012 15.5039 30.5508 12.3574 26.5957C11.3379 25.3125 8.77149 22.7109 7.08399 21.2344C5.81837 20.1621 5.85352 20.0566 9.2461 14.8008C10.8457 12.3223 12.2871 10.1426 12.4277 9.98437C12.9727 9.36914 13.5879 9.42187 15.3281 10.2656C17.8242 11.4785 19.3184 11.8301 22.0606 11.8301C23.8359 11.8301 24.6621 11.7422 25.752 11.4434C28.4941 10.7051 30.9375 9.29883 32.8184 7.36523C34.1543 5.97656 34.4356 5.625 35.1563 4.34179C36.1934 2.49609 35.3848 2.63672 45 2.63672C53.2617 2.63672 53.4024 2.63672 53.8594 3.00586C54.1231 3.21679 54.5274 3.76172 54.7559 4.23633C55.002 4.69336 55.5645 5.53711 56.0039 6.09961C57.4805 7.96289 58.0606 8.24414 58.957 7.54101C59.6953 6.96094 59.5899 6.25781 58.5176 5.00976C58.0254 4.42969 57.3574 3.46289 57.0059 2.84765C56.3203 1.63476 55.6172 0.843748 54.7734 0.386717C54.2813 0.123045 53.3672 0.0878887 45.2637 0.0527325C37.7051 0.0351543 36.1758 0.0703106 35.5781 0.281248Z" fill="white"/>
<path d="M38.9004 7.03126C38.6894 7.11915 38.2148 7.61133 37.8281 8.1211C37.459 8.63086 36.8437 9.4043 36.4922 9.8086C35.7539 10.7051 35.7012 11.2676 36.2988 11.8652C37.125 12.709 37.8808 12.3574 39.3047 10.5293L40.0957 9.49219H41.7656C43.664 9.49219 44.1211 9.2461 44.1211 8.20899C44.1211 7.1543 43.6816 6.94337 41.3262 6.90821C40.2012 6.87305 39.1113 6.94337 38.9004 7.03126Z" fill="white"/>
<path d="M46.7578 6.97852C45.8438 7.33008 45.5625 8.47266 46.2305 9.14063C46.5293 9.43946 46.8106 9.49219 48.2344 9.49219H49.9043L50.6953 10.5293C52.1192 12.3574 52.875 12.709 53.7012 11.8652C54.5098 11.0742 54.4219 10.916 51.6973 7.5586L51.2051 6.94337L49.1133 6.90821C47.9531 6.89063 46.8985 6.90821 46.7578 6.97852Z" fill="white"/>
<path d="M75.4101 7.01367C75.164 7.08398 74.4081 7.43554 73.7402 7.78711C71.5429 8.89453 70.1542 9.22851 67.8515 9.21094C66.2695 9.19336 65.5664 9.10547 64.5996 8.78906C63.9316 8.57812 63.0175 8.38476 62.5956 8.36719C61.9453 8.34961 61.7695 8.41992 61.4706 8.82422C61.1718 9.21094 61.1367 9.40429 61.2773 9.77344C61.5058 10.459 62.121 10.8281 63.8964 11.3555C65.2675 11.7598 65.7949 11.8301 67.8515 11.8301C70.6816 11.8301 72.123 11.4961 74.6718 10.2656C76.4121 9.42187 77.0273 9.36914 77.5722 9.98437C77.7128 10.1426 79.1542 12.3223 80.7539 14.8008C84.1464 20.0566 84.1816 20.1621 82.9335 21.2344C81.2636 22.6406 77.7304 26.3672 76.7988 27.6855C74.6718 30.6914 73.2304 33.627 72.1757 37.1426C71.1562 40.5176 70.9453 42.1523 70.9453 46.4062C70.9453 49.8516 70.998 50.3965 71.4374 52.4707C73.0195 59.9941 76.2363 65.3555 82.582 71.0332C83.6191 71.9648 83.8476 72.2637 83.8476 72.6855C83.8476 73.0723 82.8808 74.707 80.4199 78.5742C78.539 81.5273 76.8164 84.0762 76.623 84.252C76.0605 84.709 75.621 84.6211 73.6347 83.6895C69.8554 81.9141 67.0956 81.2988 62.9296 81.3164C59.871 81.334 58.0253 81.6152 55.5292 82.4414C53.6835 83.0566 50.9941 84.4102 49.2011 85.6406C47.3027 86.9414 46.2831 87.3633 44.9999 87.3633C43.7343 87.3633 42.6972 86.9414 40.8339 85.6758C36.5449 82.7402 31.7109 81.2109 26.7539 81.2109C25.541 81.2109 25.4179 81.2461 24.9257 81.7383C24.5039 82.1777 24.416 82.3711 24.5039 82.7578C24.7148 83.6191 25.1894 83.8477 26.7539 83.8477C27.5273 83.8477 29.0039 83.9707 30.0234 84.1289C33.4863 84.6387 36.2109 85.7285 39.5156 87.9609C41.9765 89.6133 42.8203 89.9121 44.9999 89.9121C47.1621 89.9121 48.0058 89.6133 50.5019 87.9434C53.8769 85.7109 56.5136 84.6387 60.0292 84.1113C64.3183 83.4609 68.2734 84.0937 72.5097 86.0977C74.4081 87.0117 74.7246 87.0996 75.7617 87.0996C77.0449 87.082 77.9941 86.6953 78.7675 85.834C79.3652 85.2012 85.6933 75.2871 86.1328 74.3027C86.5371 73.4062 86.5722 72.3691 86.2206 71.3848C85.8691 70.3828 85.623 70.1016 83.496 68.2559C76.746 62.4199 73.1425 54.0176 73.5292 45.0176C73.705 40.6582 74.7421 36.7734 76.746 32.8711C78.539 29.373 81.1406 26.1562 84.1816 23.6777C85.1308 22.9043 85.5878 22.377 85.8867 21.7266C86.3613 20.6895 86.4492 19.3008 86.0624 18.4043C85.746 17.6133 80.0683 8.82422 79.4882 8.20898C78.539 7.18945 76.5878 6.62695 75.4101 7.01367Z" fill="white"/>
<path d="M30.5859 14.2207C29.6191 14.7305 27.0879 15.5742 25.7871 15.8203C24.8906 15.9785 24.5215 16.1367 24.2578 16.4883C23.6426 17.2617 23.959 18.2988 24.8555 18.5273C26.0859 18.8262 32.0977 16.8223 32.8359 15.873C33.416 15.0996 32.7305 13.8867 31.7109 13.8867C31.4297 13.9043 30.9199 14.0449 30.5859 14.2207Z" fill="white"/>
<path d="M57.3398 14.291C56.9531 14.6953 56.8652 15.1875 57.0586 15.7324C57.4102 16.6289 63.8437 18.8613 65.1445 18.5273C66.041 18.2988 66.3574 17.2617 65.7422 16.4883C65.4785 16.1367 65.1094 15.9785 64.2129 15.8203C62.9121 15.5742 60.4336 14.748 59.3789 14.2207C58.5 13.7637 57.7969 13.7988 57.3398 14.291Z" fill="white"/>
<path d="M14.1328 15.3281C13.2363 16.3125 11.7773 18.7383 11.7773 19.248C11.7773 19.5645 14.4492 22.5 15.0469 22.8164C15.873 23.2559 16.875 22.6055 16.875 21.6035C16.875 21.3047 16.5586 20.7949 15.873 20.0566C14.9062 18.9668 14.8887 18.9316 15.1348 18.4746C15.4336 17.9473 15.6094 17.9473 17.5605 18.2988L18.8438 18.5273L19.2656 18.0527C19.4941 17.7715 19.6875 17.3672 19.6875 17.1563C19.6875 16.3828 19.1602 16.0137 17.3145 15.5391C14.7305 14.8535 14.5547 14.8535 14.1328 15.3281Z" fill="white"/>
<path d="M74.5137 15.0293C74.4434 15.082 73.6172 15.3281 72.668 15.5566C70.8398 16.0137 70.3125 16.3652 70.3125 17.1563C70.3125 17.3672 70.5059 17.7715 70.7344 18.0527L71.1562 18.5273L72.4395 18.2988C74.3906 17.9473 74.5664 17.9473 74.8652 18.4746C75.1113 18.9316 75.0938 18.9668 74.127 20.0566C73.4414 20.7949 73.125 21.3047 73.125 21.6035C73.125 22.6055 74.127 23.2559 74.9531 22.8164C75.5859 22.4824 78.2227 19.5645 78.2227 19.1953C78.2227 18.8262 77.2207 17.0859 76.3066 15.8906C75.832 15.2402 75.5332 15.0117 75.1289 14.9766C74.8477 14.9414 74.5664 14.9766 74.5137 15.0293Z" fill="white"/>
<path d="M19.4766 26.7891C19.2657 26.8945 18.9669 27.1934 18.8262 27.457C18.5626 27.8965 18.6153 28.0195 19.7227 30.3574C20.3731 31.6934 21.1114 33.416 21.3751 34.1894C21.92 35.8242 22.2715 36.2637 23.0098 36.2637C23.6075 36.2637 24.0469 35.9648 24.2754 35.3848C24.5215 34.6992 22.5528 29.6016 21.2169 27.4922C20.7247 26.7012 20.127 26.4551 19.4766 26.7891Z" fill="white"/>
<path d="M69.4336 26.7715C68.6426 27.1582 65.6895 33.6797 65.6895 35.0332C65.6895 36.0176 67.1133 36.668 67.7812 36C67.9219 35.8594 68.3789 34.8574 68.8008 33.75C69.2051 32.6426 69.9609 30.9199 70.4707 29.9355C70.9629 28.9336 71.3672 28.0195 71.3672 27.8789C71.3672 27.5273 70.6641 26.7715 70.2246 26.6484C70.0312 26.5957 69.6797 26.6484 69.4336 26.7715Z" fill="white"/>
<path d="M24.1699 41.3086C23.3965 41.6074 23.3613 41.7656 23.3613 46.4238C23.3438 50.8184 23.3438 50.8711 23.7305 51.1875C24.293 51.6445 24.9961 51.5918 25.5059 51.0469L25.9278 50.5898V46.3008C25.9278 42.2578 25.9102 42.0117 25.5762 41.6777C25.1367 41.2559 24.627 41.1152 24.1699 41.3086Z" fill="white"/>
<path d="M64.9512 41.3086C64.1074 41.6426 64.0723 41.8008 64.0723 46.3359V50.5898L64.4941 51.0469C65.0039 51.5918 65.707 51.6445 66.2695 51.1875C66.6562 50.8711 66.6562 50.8184 66.6387 46.4062C66.6387 42.3633 66.6035 41.9238 66.3223 41.6426C65.918 41.2559 65.3906 41.1152 64.9512 41.3086Z" fill="white"/>
<path d="M22.2012 56.7246C22.0078 56.9004 21.5859 57.7441 21.2695 58.623C20.9707 59.4844 20.2324 61.1719 19.6699 62.332C19.1074 63.5098 18.6328 64.6348 18.6328 64.8457C18.6328 65.3379 19.3887 66.0937 19.8633 66.0937C20.0742 66.0937 20.3906 66.0059 20.584 65.918C21.2871 65.5312 24.2578 58.9043 24.2578 57.6914C24.2578 56.6719 22.957 56.0566 22.2012 56.7246Z" fill="white"/>
<path d="M66.0938 56.7773C65.9004 56.9707 65.7422 57.3574 65.7422 57.6562C65.7422 58.8867 68.6953 65.5312 69.416 65.918C69.6094 66.0059 69.9258 66.0937 70.1367 66.0937C70.6113 66.0937 71.3672 65.3379 71.3672 64.8457C71.3672 64.6348 70.8926 63.5098 70.3301 62.332C69.7676 61.1719 69.0293 59.4844 68.7305 58.623C68.4141 57.7441 67.9922 56.9004 67.7988 56.7246C67.3418 56.3203 66.5332 56.3379 66.0938 56.7773Z" fill="white"/>
<path d="M13.3067 71.3496C11.3379 73.3535 11.3379 73.3535 13.1309 76.1836C14.7481 78.75 15.0469 79.1016 15.5918 79.1016C16.3301 79.1016 19.7579 77.8711 20.0918 77.502C20.4961 77.0098 20.4786 76.4473 20.0215 75.8672C19.5821 75.3047 19.0547 75.2871 17.6661 75.7617C17.1036 75.9551 16.5411 76.1133 16.418 76.1133C16.295 76.1133 15.8731 75.6035 15.4688 74.9531L14.7481 73.8105L15.4512 72.9668C15.8379 72.5098 16.2774 72.0176 16.4356 71.8945C16.8047 71.5781 16.7696 70.4355 16.3829 70.084C16.2071 69.9082 15.7852 69.7852 15.4512 69.7852C14.9063 69.7852 14.6426 69.9785 13.3067 71.3496Z" fill="white"/>
<path d="M73.5996 70.1016C73.2305 70.5059 73.2129 71.5957 73.5645 71.8945C73.7227 72.0176 74.1621 72.5098 74.5489 72.9668L75.252 73.8105L74.5313 74.9531C74.127 75.6035 73.7051 76.1133 73.5821 76.1133C73.459 76.1133 72.8965 75.9551 72.334 75.7617C70.9454 75.2871 70.418 75.3047 69.9786 75.8672C69.5215 76.4473 69.5039 77.0098 69.9258 77.4844C70.2246 77.8359 73.6524 79.1016 74.3204 79.1016C74.8829 79.1016 75.4278 78.4863 76.8868 76.1836C78.6621 73.3535 78.6621 73.3535 76.6934 71.3496C75.3223 69.9434 75.1114 69.7852 74.5313 69.7852C74.127 69.7852 73.7754 69.9082 73.5996 70.1016Z" fill="white"/>
<path d="M26.0684 74.7422C25.541 75.3047 25.5586 76.0254 26.1035 76.5527C26.4727 76.9394 26.6836 76.9922 27.8086 76.9922C29.4434 77.0098 31.2891 77.2383 33.3809 77.7129C35.0156 78.082 35.0156 78.082 35.4902 77.748C36.3164 77.1152 36.1934 75.8848 35.2793 75.498C34.2246 75.0586 30.8672 74.5137 28.6523 74.4082C26.4902 74.3203 26.4551 74.3203 26.0684 74.7422Z" fill="white"/>
<path d="M59.7656 74.4785C58.5352 74.6016 55.2832 75.2695 54.7207 75.498C53.8067 75.8848 53.6836 77.1152 54.5098 77.748C54.9844 78.082 54.9844 78.082 56.6192 77.7129C58.7109 77.2383 60.5567 77.0098 62.1914 76.9922C63.3164 76.9922 63.5274 76.9394 63.8965 76.5527C64.459 76.0078 64.4766 75.2519 63.9317 74.7422C63.5625 74.3906 63.3516 74.3555 61.9453 74.3906C61.084 74.3906 60.0996 74.4434 59.7656 74.4785Z" fill="white"/>
<path d="M41.1328 78.9609C40.7812 79.3477 40.6757 80.0684 40.9218 80.4727C41.0976 80.7363 43.5937 82.4766 44.4375 82.916C44.9648 83.1973 45.0351 83.1973 45.58 82.916C46.3183 82.5293 48.3222 81.1406 48.832 80.666C49.6406 79.9102 49.0605 78.5742 47.9179 78.5742C47.5312 78.5742 46.9687 78.8203 46.1777 79.3477L45.0175 80.1387L43.8398 79.3477C42.4687 78.4512 41.7129 78.3457 41.1328 78.9609Z" fill="white"/>
</svg>
