<svg width="90" height="90" viewBox="0 0 90 90" fill="none" xmlns="http://www.w3.org/2000/svg">
<g clip-path="url(#clip0_1_16)">
<path d="M60.2051 0.246094C59.3086 0.650391 58.711 1.45898 58.0782 3.18164C56.7598 6.75 54.8965 9.58008 52.1367 12.2695C48.7969 15.5215 45.5977 17.2441 41.3438 18.0879C38.8301 18.5977 36.5801 18.7031 33.8028 18.457C31.8868 18.2812 31.1485 18.2812 30.3223 18.457C27.545 19.0195 25.2598 20.9707 24.3457 23.5371C23.9766 24.5918 20.5664 40.9922 20.5664 41.6953C20.584 42.4863 21.1289 43.6289 21.709 44.0859C22.2891 44.543 22.2715 44.5957 21.0586 48.1465C19.6348 52.3301 17.8946 55.6523 15.4864 58.7988C13.9922 60.75 11.7071 62.9648 7.20706 66.7969C4.74613 68.9062 2.46097 70.9629 2.14456 71.3848C-0.0878587 74.3203 -0.597624 78.4336 0.86136 81.7734C1.17777 82.5117 1.19534 82.7227 1.01956 83.5664C0.720735 84.9902 0.984407 85.6582 2.72464 87.6973C4.42972 89.6836 5.18558 90.123 6.59183 89.9473C7.73441 89.7891 13.711 87.7676 16.875 86.4668C30.5332 80.8769 43.9278 71.2266 51.8555 61.2598C52.7871 60.0996 54.334 58.166 55.2832 56.9531C56.25 55.7402 58.2891 53.4902 59.8008 51.9434L62.543 49.1309L63.0528 49.6055C63.9844 50.5019 65.4961 50.7129 66.6211 50.1328C66.9551 49.9746 70.4004 47.1445 74.2676 43.8574C78.1348 40.5703 83.1094 36.334 85.3243 34.4531C89.5606 30.8672 90 30.3574 90 29.0039C90 27.9668 89.4375 27.1055 86.8008 23.9941C83.918 20.6016 83.5137 20.3203 81.8438 20.4258L80.8418 20.4785L80.3145 18.8965C79.6114 16.7871 78.2579 14.2734 76.834 12.375C75.3575 10.3887 71.666 6.67969 69.17 4.69336C67.0254 2.9707 63.6328 0.667969 62.6836 0.263672C61.9278 -0.0527344 60.9082 -0.0703125 60.2051 0.246094ZM63.5625 4.30664C67.6582 7.03125 72.0528 11.0391 74.3907 14.1504C76.2715 16.6289 77.5899 19.4238 78.0118 21.7617L78.17 22.6934L67.9746 31.3594L57.7793 40.0254L57.1114 39.8848C55.5821 39.5332 52.541 39.3926 50.502 39.5684C45.334 40.0078 39.0235 42.082 33.6973 45.0879C31.2539 46.459 31.3946 46.4941 27.1758 43.9453C25.2598 42.7852 23.6426 41.8184 23.6075 41.7656C23.4493 41.625 24.1348 38.6719 24.3282 38.6719C24.4336 38.6719 25.084 38.8301 25.752 39.0234C26.42 39.2168 27.1582 39.375 27.3868 39.375C28.002 39.375 28.6524 38.6191 28.6524 37.916C28.6524 36.9668 28.2129 36.6152 26.4551 36.1055C25.5938 35.8594 24.8555 35.6309 24.8379 35.6133C24.7852 35.5781 25.7871 30.5508 25.9278 30.1113C25.9805 29.9707 26.42 30.041 27.4395 30.3398C28.2481 30.5684 29.0918 30.7617 29.3028 30.7617C29.9356 30.7617 30.586 30.0059 30.586 29.3027C30.586 28.3535 30.1465 28.002 28.3887 27.4922C27.5274 27.2461 26.7539 27 26.6836 26.9648C26.543 26.877 27.0528 24.6445 27.3516 24.0469C27.791 23.1855 28.6875 22.3066 29.6016 21.832C30.4629 21.375 30.586 21.3574 32.5196 21.4453C39.8321 21.7617 43.4883 21.1641 47.9004 18.9844C50.3965 17.7539 52.4707 16.2246 54.6328 14.0625C57.5332 11.1445 59.5547 7.85742 61.1543 3.46289C61.2598 3.19922 61.4004 2.98828 61.4532 2.98828C61.5235 2.98828 62.4727 3.58594 63.5625 4.30664ZM84.709 26.1914C85.9746 27.668 86.9942 28.9512 86.9766 29.0391C86.8887 29.25 65.4082 47.4609 65.2325 47.4609C65.1446 47.4609 64.4239 46.6875 63.6153 45.7383C62.8067 44.8066 61.7344 43.541 61.2246 42.9434L60.2754 41.8711L71.1387 32.625C77.1153 27.5449 82.0899 23.3965 82.1954 23.4316C82.3184 23.4492 83.4434 24.6973 84.709 26.1914ZM53.7715 42.4688L54.8438 42.5918L53.0332 44.4551C50.8711 46.7051 48.7969 49.0957 46.5821 51.9434C43.0137 56.5312 39.6914 60.0644 35.9297 63.2109C26.9649 70.7168 17.0684 76.3945 6.32816 80.1562L3.86722 81.0352L3.62113 80.543C2.93558 79.1894 2.86527 76.7285 3.46292 75.1641C4.11331 73.5293 4.79886 72.7734 9.05277 69.1699C13.6231 65.3027 16.0313 62.9824 17.8243 60.6797C20.3555 57.4629 22.4297 53.5078 23.9414 48.9902C24.4512 47.4785 24.9434 46.2305 25.0313 46.2305C25.1192 46.2305 25.9629 46.7051 26.9297 47.3027C29.3555 48.7969 29.9532 49.043 31.2188 49.043C32.5547 49.043 33.2403 48.8145 35.2969 47.6367C39.9551 44.9824 45.7735 43.0137 50.2735 42.5566C52.3301 42.3457 52.541 42.3457 53.7715 42.4688ZM59.3789 45.3867L60.6094 46.8457L57.8496 49.6582C54.9668 52.6113 53.4375 54.3516 50.9766 57.5684C41.2032 70.2949 25.9453 80.6836 9.07034 86.1152C7.52347 86.625 6.22269 86.9941 6.15238 86.9766C5.81839 86.8359 3.83206 84.3398 3.97269 84.2168C4.06058 84.1465 5.11527 83.7422 6.32816 83.3379C15.7852 80.1387 25.2071 75.1992 33.0469 69.3105C39.7266 64.3184 44.2793 59.8711 48.9551 53.7891C49.8164 52.6816 51.1172 51.0644 51.8379 50.1855C53.4903 48.2344 57.6739 43.9453 57.9551 43.9453C58.0606 43.9453 58.6934 44.5957 59.3789 45.3867Z" fill="white"/>
</g>
<defs>
<clipPath id="clip0_1_16">
<rect width="90" height="90" fill="white"/>
</clipPath>
</defs>
</svg>
